<svg width="32" height="32" viewBox="0 0 32 32" xmlns="http://www.w3.org/2000/svg">
  <defs>
    <linearGradient id="g" x1="0" y1="0" x2="1" y2="1">
      <stop offset="0%" stop-color="#7C2DFF"/>
      <stop offset="50%" stop-color="#E0148C"/>
      <stop offset="100%" stop-color="#00CC9A"/>
    </linearGradient>
  </defs>
  <rect width="32" height="32" rx="8" fill="url(#g)"/>
  <g fill="none" stroke="#fff" stroke-width="2" stroke-linecap="round" stroke-linejoin="round">
    <path d="M12 6H7a1 1 0 0 0-1 1v5"/>
    <path d="M20 6h5a1 1 0 0 1 1 1v5"/>
    <path d="M26 20v5a1 1 0 0 1-1 1h-5"/>
    <path d="M12 26H7a1 1 0 0 1-1-1v-5"/>
  </g>
  <circle cx="16" cy="14" r="3.3" fill="#fff"/>
  <path d="M10.8 25.5c0-3.2 2.3-5.4 5.2-5.4s5.2 2.2 5.2 5.4" fill="#fff"/>
</svg>
